<svg id="Layer_1" height="512" viewBox="0 0 512 512" width="512" xmlns="http://www.w3.org/2000/svg" data-name="Layer 1"><path d="m467.66 379.88.12.53a22.985 22.985 0 0 0 -18.3 22.26v8.35h-.74l-129.74-.04.01-76.16a19.332 19.332 0 0 1 19.41-19.68h109.79a19.257 19.257 0 0 1 19.45 19.06z" fill="#6fe3ff"/><path d="m318.97 334.2.03 76.78-128.44-.03h-.85v-8.28a22.513 22.513 0 0 0 -6.81-16.12 23.338 23.338 0 0 0 -13.28-6.45v-.01l.03-.21v-45.68a19.257 19.257 0 0 1 19.45-19.06h110.42a19.27 19.27 0 0 1 19.45 19.06z" fill="#6fe3ff"/><path d="m496 402.67v69.94h-46.52v-69.94a23.239 23.239 0 0 1 23.26-22.79 23.457 23.457 0 0 1 16.45 6.67 22.513 22.513 0 0 1 6.81 16.12z" fill="#f8ec7d"/><path d="m449.48 411.02v47.67h-.68l-259.07-.08h-.02v-47.66h.85l128.44.03 129.74.04z" fill="#e48e66"/><path d="m281.87 238.5v9.38h-93.75v-9.38a46.875 46.875 0 0 1 93.75 0z" fill="#f8ec7d"/><path d="m219.97 247.88h32.24c-.14 9.24-7.3 16.69-16.12 16.69s-15.99-7.45-16.12-16.69z" fill="#6fe3ff"/><path d="m189.71 458.61v14h-46.52v-69.94c0-12.54 10.47-22.79 23.26-22.79a23.662 23.662 0 0 1 3.17.21v.01a23.338 23.338 0 0 1 13.28 6.45 22.513 22.513 0 0 1 6.81 16.12z" fill="#f8ec7d"/><g fill="#63316d"><path d="m218.423 209.313a52.7 52.7 0 0 0 -13.771 14.313 6 6 0 1 0 10.055 6.549 40.8 40.8 0 0 1 10.649-11.069 6 6 0 1 0 -6.933-9.793z"/><path d="m109.75 466.61h-43.98v-274.947c0-.071.01-.141.01-.213 0-47.454 36.61-86.06 81.61-86.06 43.258 0 78.744 35.689 81.42 80.613a52.939 52.939 0 0 0 -46.69 52.5v9.38a6 6 0 0 0 6 6h26.7c2.649 9.6 11.226 16.69 21.274 16.69s18.614-7.087 21.269-16.69h24.507a6 6 0 0 0 6-6v-9.383a52.868 52.868 0 0 0 -47.029-52.541c-2.729-51.525-43.6-92.569-93.451-92.569-51.477 0-93.378 43.753-93.6 97.623-.006.1-.016.21-.016.317v275.28h-37.774a6 6 0 0 0 0 12h93.75a6 6 0 0 0 0-12zm126.34-208.04a9.947 9.947 0 0 1 -8.286-4.69h16.566a9.944 9.944 0 0 1 -8.28 4.69zm39.78-20.07v3.38h-81.75v-3.38a40.875 40.875 0 0 1 81.75 0z"/><path d="m473.66 373.9v-39.7a25.286 25.286 0 0 0 -25.45-25.06h-109.79a25.214 25.214 0 0 0 -18 7.426c-.5.5-.96 1.015-1.408 1.545a25.559 25.559 0 0 0 -19.492-8.971h-110.42a25.285 25.285 0 0 0 -25.45 25.06v39.815a29.011 29.011 0 0 0 -26.46 28.655v69.94a6 6 0 0 0 6 6h46.52a6 6 0 0 0 6-6v-8l247.77.077v7.921a6 6 0 0 0 6 6h46.52a6 6 0 0 0 6-6v-69.938a28.392 28.392 0 0 0 -8.613-20.408 29.3 29.3 0 0 0 -19.727-8.362zm-144.74-48.864a13.3 13.3 0 0 1 9.5-3.9h109.79a13.275 13.275 0 0 1 13.45 13.06v41.842a29 29 0 0 0 -18.18 26.628v2.348l-118.48-.032.009-70.183a13.623 13.623 0 0 1 3.911-9.763zm-139.82-3.9h110.42a13.275 13.275 0 0 1 13.45 13.064l.03 70.779-117.288-.028v-2.281a28.4 28.4 0 0 0 -8.617-20.412 29.135 29.135 0 0 0 -11.443-6.915v-41.143a13.275 13.275 0 0 1 13.448-13.06zm-5.39 145.47h-34.52v-63.936a17.05 17.05 0 0 1 17.26-16.79 17.561 17.561 0 0 1 2.078.12c.1.019.2.034.308.048a17.232 17.232 0 0 1 9.862 4.785 16.474 16.474 0 0 1 5.012 11.837zm12-14v-35.655l123.29.029 124.482.038v35.671zm294.29 14h-34.52v-63.936a17.019 17.019 0 0 1 13.56-16.394h.024a17.59 17.59 0 0 1 15.924 4.562 16.474 16.474 0 0 1 5.012 11.832z"/></g></svg>